<?xml version="1.0" encoding="utf-8" standalone="no"?>
<!DOCTYPE svg PUBLIC "-//W3C//DTD SVG 1.1//EN"
  "http://www.w3.org/Graphics/SVG/1.1/DTD/svg11.dtd">
<svg xmlns:xlink="http://www.w3.org/1999/xlink" width="460.8pt" height="345.6pt" viewBox="0 0 460.8 345.6" xmlns="http://www.w3.org/2000/svg" version="1.1">
 <metadata>
  <rdf:RDF xmlns:dc="http://purl.org/dc/elements/1.1/" xmlns:cc="http://creativecommons.org/ns#" xmlns:rdf="http://www.w3.org/1999/02/22-rdf-syntax-ns#">
   <cc:Work>
    <dc:type rdf:resource="http://purl.org/dc/dcmitype/StillImage"/>
    <dc:date>2024-04-09T15:35:04.755897</dc:date>
    <dc:format>image/svg+xml</dc:format>
    <dc:creator>
     <cc:Agent>
      <dc:title>Matplotlib v3.7.4, https://matplotlib.org/</dc:title>
     </cc:Agent>
    </dc:creator>
   </cc:Work>
  </rdf:RDF>
 </metadata>
 <defs>
  <style type="text/css">*{stroke-linejoin: round; stroke-linecap: butt}</style>
 </defs>
 <g id="figure_1">
  <g id="patch_1">
   <path d="M 0 345.6 
L 460.8 345.6 
L 460.8 0 
L 0 0 
z
" style="fill: #ffffff"/>
  </g>
  <g id="axes_1">
   <g id="patch_2">
    <path d="M 57.6 307.584 
L 414.72 307.584 
L 414.72 41.472 
L 57.6 41.472 
z
" style="fill: #ffffff"/>
   </g>
   <g id="matplotlib.axis_1">
    <g id="xtick_1">
     <g id="line2d_1">
      <defs>
       <path id="m8e8266abd2" d="M 0 0 
L 0 3.5 
" style="stroke: #000000; stroke-width: 0.8"/>
      </defs>
      <g>
       <use xlink:href="#m8e8266abd2" x="106.960742" y="307.584" style="stroke: #000000; stroke-width: 0.8"/>
      </g>
     </g>
     <g id="text_1">
      <!-- 5 -->
      <g transform="translate(104.460742 321.419937) scale(0.1 -0.1)">
       <defs>
        <path id="SimHei-35" d="M 2825 1650 
Q 2825 900 2462 475 
Q 2100 50 1500 50 
Q 975 50 637 400 
Q 300 750 275 1350 
L 850 1350 
Q 850 975 1025 750 
Q 1200 525 1525 525 
Q 1850 525 2037 800 
Q 2225 1075 2225 1650 
Q 2225 2150 2062 2387 
Q 1900 2625 1625 2625 
Q 1400 2625 1237 2525 
Q 1075 2425 925 2175 
L 425 2175 
L 575 4375 
L 2725 4375 
L 2725 3900 
L 1050 3900 
L 950 2750 
Q 1100 2900 1275 2975 
Q 1450 3050 1750 3050 
Q 2225 3050 2525 2687 
Q 2825 2325 2825 1650 
z
" transform="scale(0.015625)"/>
       </defs>
       <use xlink:href="#SimHei-35"/>
      </g>
     </g>
    </g>
    <g id="xtick_2">
     <g id="line2d_2">
      <g>
       <use xlink:href="#m8e8266abd2" x="140.088757" y="307.584" style="stroke: #000000; stroke-width: 0.8"/>
      </g>
     </g>
     <g id="text_2">
      <!-- 10 -->
      <g transform="translate(135.088757 321.419937) scale(0.1 -0.1)">
       <defs>
        <path id="SimHei-31" d="M 1950 100 
L 1375 100 
L 1375 3425 
L 625 3425 
L 625 3725 
Q 1075 3725 1325 3900 
Q 1575 4075 1650 4425 
L 1950 4425 
L 1950 100 
z
" transform="scale(0.015625)"/>
        <path id="SimHei-30" d="M 2975 2250 
Q 2975 1350 2650 700 
Q 2325 50 1600 50 
Q 875 50 537 700 
Q 200 1350 200 2250 
Q 200 3150 537 3787 
Q 875 4425 1600 4425 
Q 2325 4425 2650 3787 
Q 2975 3150 2975 2250 
z
M 2375 2250 
Q 2375 3050 2187 3500 
Q 2000 3950 1600 3950 
Q 1200 3950 1000 3500 
Q 800 3050 800 2250 
Q 800 1450 1000 987 
Q 1200 525 1600 525 
Q 2000 525 2187 987 
Q 2375 1450 2375 2250 
z
" transform="scale(0.015625)"/>
       </defs>
       <use xlink:href="#SimHei-31"/>
       <use xlink:href="#SimHei-30" x="50"/>
      </g>
     </g>
    </g>
    <g id="xtick_3">
     <g id="line2d_3">
      <g>
       <use xlink:href="#m8e8266abd2" x="173.216772" y="307.584" style="stroke: #000000; stroke-width: 0.8"/>
      </g>
     </g>
     <g id="text_3">
      <!-- 15 -->
      <g transform="translate(168.216772 321.419937) scale(0.1 -0.1)">
       <use xlink:href="#SimHei-31"/>
       <use xlink:href="#SimHei-35" x="50"/>
      </g>
     </g>
    </g>
    <g id="xtick_4">
     <g id="line2d_4">
      <g>
       <use xlink:href="#m8e8266abd2" x="206.344787" y="307.584" style="stroke: #000000; stroke-width: 0.8"/>
      </g>
     </g>
     <g id="text_4">
      <!-- 20 -->
      <g transform="translate(201.344787 321.419937) scale(0.1 -0.1)">
       <defs>
        <path id="SimHei-32" d="M 2850 100 
L 300 100 
L 300 500 
Q 450 900 712 1237 
Q 975 1575 1475 2000 
Q 1850 2325 2012 2600 
Q 2175 2875 2175 3200 
Q 2175 3525 2037 3737 
Q 1900 3950 1600 3950 
Q 1350 3950 1162 3725 
Q 975 3500 975 2925 
L 400 2925 
Q 425 3650 737 4037 
Q 1050 4425 1625 4425 
Q 2175 4425 2475 4087 
Q 2775 3750 2775 3175 
Q 2775 2700 2500 2350 
Q 2225 2000 1825 1650 
Q 1375 1250 1200 1050 
Q 1025 850 875 575 
L 2850 575 
L 2850 100 
z
" transform="scale(0.015625)"/>
       </defs>
       <use xlink:href="#SimHei-32"/>
       <use xlink:href="#SimHei-30" x="50"/>
      </g>
     </g>
    </g>
    <g id="xtick_5">
     <g id="line2d_5">
      <g>
       <use xlink:href="#m8e8266abd2" x="239.472801" y="307.584" style="stroke: #000000; stroke-width: 0.8"/>
      </g>
     </g>
     <g id="text_5">
      <!-- 25 -->
      <g transform="translate(234.472801 321.419937) scale(0.1 -0.1)">
       <use xlink:href="#SimHei-32"/>
       <use xlink:href="#SimHei-35" x="50"/>
      </g>
     </g>
    </g>
    <g id="xtick_6">
     <g id="line2d_6">
      <g>
       <use xlink:href="#m8e8266abd2" x="272.600816" y="307.584" style="stroke: #000000; stroke-width: 0.8"/>
      </g>
     </g>
     <g id="text_6">
      <!-- 30 -->
      <g transform="translate(267.600816 321.419937) scale(0.1 -0.1)">
       <defs>
        <path id="SimHei-33" d="M 2825 1300 
Q 2825 725 2462 387 
Q 2100 50 1550 50 
Q 1000 50 637 387 
Q 275 725 275 1425 
L 850 1425 
Q 850 950 1037 737 
Q 1225 525 1550 525 
Q 1875 525 2050 725 
Q 2225 925 2225 1350 
Q 2225 1700 2037 1900 
Q 1850 2100 1375 2100 
L 1375 2525 
Q 1775 2525 1962 2725 
Q 2150 2925 2150 3325 
Q 2150 3625 2012 3800 
Q 1875 3975 1575 3975 
Q 1275 3975 1112 3762 
Q 950 3550 925 3150 
L 375 3150 
Q 425 3725 737 4075 
Q 1050 4425 1575 4425 
Q 2125 4425 2425 4112 
Q 2725 3800 2725 3350 
Q 2725 2925 2575 2687 
Q 2425 2450 2075 2325 
Q 2425 2250 2625 1975 
Q 2825 1700 2825 1300 
z
" transform="scale(0.015625)"/>
       </defs>
       <use xlink:href="#SimHei-33"/>
       <use xlink:href="#SimHei-30" x="50"/>
      </g>
     </g>
    </g>
    <g id="xtick_7">
     <g id="line2d_7">
      <g>
       <use xlink:href="#m8e8266abd2" x="305.728831" y="307.584" style="stroke: #000000; stroke-width: 0.8"/>
      </g>
     </g>
     <g id="text_7">
      <!-- 35 -->
      <g transform="translate(300.728831 321.419937) scale(0.1 -0.1)">
       <use xlink:href="#SimHei-33"/>
       <use xlink:href="#SimHei-35" x="50"/>
      </g>
     </g>
    </g>
    <g id="xtick_8">
     <g id="line2d_8">
      <g>
       <use xlink:href="#m8e8266abd2" x="338.856846" y="307.584" style="stroke: #000000; stroke-width: 0.8"/>
      </g>
     </g>
     <g id="text_8">
      <!-- 40 -->
      <g transform="translate(333.856846 321.419937) scale(0.1 -0.1)">
       <defs>
        <path id="SimHei-34" d="M 2975 1200 
L 2450 1200 
L 2450 100 
L 1875 100 
L 1875 1200 
L 200 1200 
L 200 1675 
L 1875 4425 
L 2450 4425 
L 2450 1675 
L 2975 1675 
L 2975 1200 
z
M 1875 1675 
L 1875 3525 
L 750 1675 
L 1875 1675 
z
" transform="scale(0.015625)"/>
       </defs>
       <use xlink:href="#SimHei-34"/>
       <use xlink:href="#SimHei-30" x="50"/>
      </g>
     </g>
    </g>
    <g id="xtick_9">
     <g id="line2d_9">
      <g>
       <use xlink:href="#m8e8266abd2" x="371.984861" y="307.584" style="stroke: #000000; stroke-width: 0.8"/>
      </g>
     </g>
     <g id="text_9">
      <!-- 45 -->
      <g transform="translate(366.984861 321.419937) scale(0.1 -0.1)">
       <use xlink:href="#SimHei-34"/>
       <use xlink:href="#SimHei-35" x="50"/>
      </g>
     </g>
    </g>
    <g id="xtick_10">
     <g id="line2d_10">
      <g>
       <use xlink:href="#m8e8266abd2" x="405.112876" y="307.584" style="stroke: #000000; stroke-width: 0.8"/>
      </g>
     </g>
     <g id="text_10">
      <!-- 50 -->
      <g transform="translate(400.112876 321.419937) scale(0.1 -0.1)">
       <use xlink:href="#SimHei-35"/>
       <use xlink:href="#SimHei-30" x="50"/>
      </g>
     </g>
    </g>
    <g id="text_11">
     <!-- Number of oracle nodes -->
     <g transform="translate(181.16 333.544937) scale(0.1 -0.1)">
      <defs>
       <path id="SimHei-4e" d="M 2875 100 
L 2250 100 
L 875 3200 
L 850 3200 
L 850 100 
L 275 100 
L 275 4375 
L 900 4375 
L 2275 1275 
L 2300 1275 
L 2300 4375 
L 2875 4375 
L 2875 100 
z
" transform="scale(0.015625)"/>
       <path id="SimHei-75" d="M 2825 100 
L 2325 100 
L 2325 625 
Q 2125 350 1887 200 
Q 1650 50 1275 50 
Q 825 50 600 300 
Q 375 550 375 925 
L 375 2900 
L 875 2900 
L 875 1100 
Q 875 800 1025 625 
Q 1175 450 1425 450 
Q 1750 450 2037 787 
Q 2325 1125 2325 1625 
L 2325 2900 
L 2825 2900 
L 2825 100 
z
" transform="scale(0.015625)"/>
       <path id="SimHei-6d" d="M 3075 100 
L 2575 100 
L 2575 2125 
Q 2575 2275 2525 2375 
Q 2475 2475 2325 2475 
Q 2150 2475 2000 2287 
Q 1850 2100 1850 1800 
L 1850 100 
L 1350 100 
L 1350 2125 
Q 1350 2275 1300 2375 
Q 1250 2475 1100 2475 
Q 925 2475 775 2287 
Q 625 2100 625 1800 
L 625 100 
L 125 100 
L 125 2900 
L 625 2900 
L 625 2525 
Q 750 2725 925 2837 
Q 1100 2950 1300 2950 
Q 1500 2950 1637 2837 
Q 1775 2725 1825 2525 
Q 1950 2725 2112 2837 
Q 2275 2950 2475 2950 
Q 2775 2950 2925 2787 
Q 3075 2625 3075 2325 
L 3075 100 
z
" transform="scale(0.015625)"/>
       <path id="SimHei-62" d="M 2850 1500 
Q 2850 775 2500 412 
Q 2150 50 1650 50 
Q 1375 50 1175 150 
Q 975 250 825 475 
L 825 100 
L 325 100 
L 325 4375 
L 825 4375 
L 825 2525 
Q 975 2750 1175 2862 
Q 1375 2975 1650 2975 
Q 2150 2975 2500 2600 
Q 2850 2225 2850 1500 
z
M 2300 1500 
Q 2300 1975 2112 2250 
Q 1925 2525 1550 2525 
Q 1250 2525 1037 2250 
Q 825 1975 825 1500 
Q 825 1025 1037 762 
Q 1250 500 1550 500 
Q 1925 500 2112 762 
Q 2300 1025 2300 1500 
z
" transform="scale(0.015625)"/>
       <path id="SimHei-65" d="M 2875 1050 
Q 2825 600 2475 325 
Q 2125 50 1650 50 
Q 1050 50 662 437 
Q 275 825 275 1500 
Q 275 2175 662 2562 
Q 1050 2950 1650 2950 
Q 2175 2950 2512 2612 
Q 2850 2275 2850 1500 
L 825 1500 
Q 825 950 1062 725 
Q 1300 500 1650 500 
Q 1925 500 2100 637 
Q 2275 775 2325 1050 
L 2875 1050 
z
M 2275 1900 
Q 2225 2250 2050 2387 
Q 1875 2525 1600 2525 
Q 1350 2525 1150 2387 
Q 950 2250 850 1900 
L 2275 1900 
z
" transform="scale(0.015625)"/>
       <path id="SimHei-72" d="M 2525 2400 
Q 2050 2475 1725 2262 
Q 1400 2050 1175 1525 
L 1175 100 
L 675 100 
L 675 2900 
L 1175 2900 
L 1175 2175 
Q 1400 2575 1737 2762 
Q 2075 2950 2525 2950 
L 2525 2400 
z
" transform="scale(0.015625)"/>
       <path id="SimHei-20" transform="scale(0.015625)"/>
       <path id="SimHei-6f" d="M 2950 1500 
Q 2950 850 2550 450 
Q 2150 50 1600 50 
Q 1050 50 650 450 
Q 250 850 250 1500 
Q 250 2150 650 2550 
Q 1050 2950 1600 2950 
Q 2150 2950 2550 2550 
Q 2950 2150 2950 1500 
z
M 2400 1500 
Q 2400 2000 2150 2250 
Q 1900 2500 1600 2500 
Q 1300 2500 1050 2250 
Q 800 2000 800 1500 
Q 800 1000 1050 750 
Q 1300 500 1600 500 
Q 1900 500 2150 750 
Q 2400 1000 2400 1500 
z
" transform="scale(0.015625)"/>
       <path id="SimHei-66" d="M 2875 3800 
Q 2750 3875 2575 3925 
Q 2400 3975 2125 3975 
Q 1850 3975 1750 3837 
Q 1650 3700 1650 3500 
L 1650 2900 
L 2675 2900 
L 2675 2500 
L 1650 2500 
L 1650 100 
L 1150 100 
L 1150 2500 
L 300 2500 
L 300 2900 
L 1150 2900 
L 1150 3475 
Q 1150 3925 1425 4175 
Q 1700 4425 2150 4425 
Q 2425 4425 2587 4387 
Q 2750 4350 2875 4300 
L 2875 3800 
z
" transform="scale(0.015625)"/>
       <path id="SimHei-61" d="M 2900 100 
L 2300 100 
Q 2250 150 2225 237 
Q 2200 325 2200 450 
Q 2025 250 1775 150 
Q 1525 50 1250 50 
Q 850 50 575 250 
Q 300 450 300 825 
Q 300 1200 550 1425 
Q 800 1650 1325 1725 
Q 1675 1775 1937 1850 
Q 2200 1925 2200 2050 
Q 2200 2200 2087 2350 
Q 1975 2500 1600 2500 
Q 1300 2500 1162 2387 
Q 1025 2275 975 2075 
L 425 2075 
Q 475 2475 787 2712 
Q 1100 2950 1600 2950 
Q 2150 2950 2425 2700 
Q 2700 2450 2700 2000 
L 2700 625 
Q 2700 475 2750 350 
Q 2800 225 2900 100 
z
M 2200 1025 
L 2200 1525 
Q 2050 1475 1912 1437 
Q 1775 1400 1450 1350 
Q 1075 1300 962 1175 
Q 850 1050 850 875 
Q 850 725 962 612 
Q 1075 500 1300 500 
Q 1525 500 1787 625 
Q 2050 750 2200 1025 
z
" transform="scale(0.015625)"/>
       <path id="SimHei-63" d="M 2875 1225 
Q 2875 700 2512 375 
Q 2150 50 1600 50 
Q 1050 50 650 437 
Q 250 825 250 1500 
Q 250 2175 650 2562 
Q 1050 2950 1600 2950 
Q 2150 2950 2475 2662 
Q 2800 2375 2800 1975 
L 2250 1975 
Q 2225 2275 2037 2387 
Q 1850 2500 1600 2500 
Q 1300 2500 1050 2262 
Q 800 2025 800 1500 
Q 800 975 1050 737 
Q 1300 500 1600 500 
Q 1925 500 2125 675 
Q 2325 850 2325 1225 
L 2875 1225 
z
" transform="scale(0.015625)"/>
       <path id="SimHei-6c" d="M 1850 100 
L 1350 100 
L 1350 4375 
L 1850 4375 
L 1850 100 
z
" transform="scale(0.015625)"/>
       <path id="SimHei-6e" d="M 2825 100 
L 2325 100 
L 2325 1900 
Q 2325 2200 2175 2375 
Q 2025 2550 1775 2550 
Q 1450 2550 1162 2212 
Q 875 1875 875 1375 
L 875 100 
L 375 100 
L 375 2900 
L 875 2900 
L 875 2375 
Q 1075 2650 1312 2800 
Q 1550 2950 1925 2950 
Q 2375 2950 2600 2700 
Q 2825 2450 2825 2075 
L 2825 100 
z
" transform="scale(0.015625)"/>
       <path id="SimHei-64" d="M 2775 100 
L 2275 100 
L 2275 475 
Q 2125 250 1925 150 
Q 1725 50 1450 50 
Q 950 50 600 412 
Q 250 775 250 1500 
Q 250 2225 600 2600 
Q 950 2975 1450 2975 
Q 1725 2975 1925 2862 
Q 2125 2750 2275 2525 
L 2275 4375 
L 2775 4375 
L 2775 100 
z
M 2275 1500 
Q 2275 1975 2062 2250 
Q 1850 2525 1550 2525 
Q 1175 2525 987 2250 
Q 800 1975 800 1500 
Q 800 1025 987 762 
Q 1175 500 1550 500 
Q 1850 500 2062 762 
Q 2275 1025 2275 1500 
z
" transform="scale(0.015625)"/>
       <path id="SimHei-73" d="M 2775 875 
Q 2775 475 2462 262 
Q 2150 50 1675 50 
Q 1075 50 750 287 
Q 425 525 425 975 
L 925 975 
Q 925 675 1137 575 
Q 1350 475 1650 475 
Q 1950 475 2100 587 
Q 2250 700 2250 875 
Q 2250 1000 2125 1125 
Q 2000 1250 1500 1325 
Q 925 1400 712 1612 
Q 500 1825 500 2175 
Q 500 2475 787 2712 
Q 1075 2950 1625 2950 
Q 2125 2950 2412 2725 
Q 2700 2500 2700 2125 
L 2200 2125 
Q 2200 2350 2037 2437 
Q 1875 2525 1625 2525 
Q 1300 2525 1162 2412 
Q 1025 2300 1025 2150 
Q 1025 1975 1150 1875 
Q 1275 1775 1675 1725 
Q 2325 1625 2550 1412 
Q 2775 1200 2775 875 
z
" transform="scale(0.015625)"/>
      </defs>
      <use xlink:href="#SimHei-4e"/>
      <use xlink:href="#SimHei-75" x="50"/>
      <use xlink:href="#SimHei-6d" x="100"/>
      <use xlink:href="#SimHei-62" x="150"/>
      <use xlink:href="#SimHei-65" x="200"/>
      <use xlink:href="#SimHei-72" x="250"/>
      <use xlink:href="#SimHei-20" x="300"/>
      <use xlink:href="#SimHei-6f" x="350"/>
      <use xlink:href="#SimHei-66" x="400"/>
      <use xlink:href="#SimHei-20" x="450"/>
      <use xlink:href="#SimHei-6f" x="500"/>
      <use xlink:href="#SimHei-72" x="550"/>
      <use xlink:href="#SimHei-61" x="600"/>
      <use xlink:href="#SimHei-63" x="650"/>
      <use xlink:href="#SimHei-6c" x="700"/>
      <use xlink:href="#SimHei-65" x="750"/>
      <use xlink:href="#SimHei-20" x="800"/>
      <use xlink:href="#SimHei-6e" x="850"/>
      <use xlink:href="#SimHei-6f" x="900"/>
      <use xlink:href="#SimHei-64" x="950"/>
      <use xlink:href="#SimHei-65" x="1000"/>
      <use xlink:href="#SimHei-73" x="1050"/>
     </g>
    </g>
   </g>
   <g id="matplotlib.axis_2">
    <g id="ytick_1">
     <g id="line2d_11">
      <defs>
       <path id="md93e770b23" d="M 0 0 
L -3.5 0 
" style="stroke: #000000; stroke-width: 0.8"/>
      </defs>
      <g>
       <use xlink:href="#md93e770b23" x="57.6" y="295.488" style="stroke: #000000; stroke-width: 0.8"/>
      </g>
     </g>
     <g id="text_12">
      <!-- 0.0 -->
      <g transform="translate(35.6 298.905969) scale(0.1 -0.1)">
       <defs>
        <path id="SimHei-2e" d="M 1100 100 
L 525 100 
L 525 650 
L 1100 650 
L 1100 100 
z
" transform="scale(0.015625)"/>
       </defs>
       <use xlink:href="#SimHei-30"/>
       <use xlink:href="#SimHei-2e" x="50"/>
       <use xlink:href="#SimHei-30" x="100"/>
      </g>
     </g>
    </g>
    <g id="ytick_2">
     <g id="line2d_12">
      <g>
       <use xlink:href="#md93e770b23" x="57.6" y="284.267221" style="stroke: #000000; stroke-width: 0.8"/>
      </g>
     </g>
     <g id="text_13">
      <!-- 0.5 -->
      <g transform="translate(35.6 287.68519) scale(0.1 -0.1)">
       <use xlink:href="#SimHei-30"/>
       <use xlink:href="#SimHei-2e" x="50"/>
       <use xlink:href="#SimHei-35" x="100"/>
      </g>
     </g>
    </g>
    <g id="ytick_3">
     <g id="line2d_13">
      <g>
       <use xlink:href="#md93e770b23" x="57.6" y="273.046442" style="stroke: #000000; stroke-width: 0.8"/>
      </g>
     </g>
     <g id="text_14">
      <!-- 1.0 -->
      <g transform="translate(35.6 276.46441) scale(0.1 -0.1)">
       <use xlink:href="#SimHei-31"/>
       <use xlink:href="#SimHei-2e" x="50"/>
       <use xlink:href="#SimHei-30" x="100"/>
      </g>
     </g>
    </g>
    <g id="ytick_4">
     <g id="line2d_14">
      <g>
       <use xlink:href="#md93e770b23" x="57.6" y="261.825662" style="stroke: #000000; stroke-width: 0.8"/>
      </g>
     </g>
     <g id="text_15">
      <!-- 1.5 -->
      <g transform="translate(35.6 265.243631) scale(0.1 -0.1)">
       <use xlink:href="#SimHei-31"/>
       <use xlink:href="#SimHei-2e" x="50"/>
       <use xlink:href="#SimHei-35" x="100"/>
      </g>
     </g>
    </g>
    <g id="ytick_5">
     <g id="line2d_15">
      <g>
       <use xlink:href="#md93e770b23" x="57.6" y="250.604883" style="stroke: #000000; stroke-width: 0.8"/>
      </g>
     </g>
     <g id="text_16">
      <!-- 2.0 -->
      <g transform="translate(35.6 254.022852) scale(0.1 -0.1)">
       <use xlink:href="#SimHei-32"/>
       <use xlink:href="#SimHei-2e" x="50"/>
       <use xlink:href="#SimHei-30" x="100"/>
      </g>
     </g>
    </g>
    <g id="ytick_6">
     <g id="line2d_16">
      <g>
       <use xlink:href="#md93e770b23" x="57.6" y="239.384104" style="stroke: #000000; stroke-width: 0.8"/>
      </g>
     </g>
     <g id="text_17">
      <!-- 2.5 -->
      <g transform="translate(35.6 242.802073) scale(0.1 -0.1)">
       <use xlink:href="#SimHei-32"/>
       <use xlink:href="#SimHei-2e" x="50"/>
       <use xlink:href="#SimHei-35" x="100"/>
      </g>
     </g>
    </g>
    <g id="ytick_7">
     <g id="line2d_17">
      <g>
       <use xlink:href="#md93e770b23" x="57.6" y="228.163325" style="stroke: #000000; stroke-width: 0.8"/>
      </g>
     </g>
     <g id="text_18">
      <!-- 3.0 -->
      <g transform="translate(35.6 231.581293) scale(0.1 -0.1)">
       <use xlink:href="#SimHei-33"/>
       <use xlink:href="#SimHei-2e" x="50"/>
       <use xlink:href="#SimHei-30" x="100"/>
      </g>
     </g>
    </g>
    <g id="ytick_8">
     <g id="line2d_18">
      <g>
       <use xlink:href="#md93e770b23" x="57.6" y="216.942545" style="stroke: #000000; stroke-width: 0.8"/>
      </g>
     </g>
     <g id="text_19">
      <!-- 3.5 -->
      <g transform="translate(35.6 220.360514) scale(0.1 -0.1)">
       <use xlink:href="#SimHei-33"/>
       <use xlink:href="#SimHei-2e" x="50"/>
       <use xlink:href="#SimHei-35" x="100"/>
      </g>
     </g>
    </g>
    <g id="ytick_9">
     <g id="line2d_19">
      <g>
       <use xlink:href="#md93e770b23" x="57.6" y="205.721766" style="stroke: #000000; stroke-width: 0.8"/>
      </g>
     </g>
     <g id="text_20">
      <!-- 4.0 -->
      <g transform="translate(35.6 209.139735) scale(0.1 -0.1)">
       <use xlink:href="#SimHei-34"/>
       <use xlink:href="#SimHei-2e" x="50"/>
       <use xlink:href="#SimHei-30" x="100"/>
      </g>
     </g>
    </g>
    <g id="ytick_10">
     <g id="line2d_20">
      <g>
       <use xlink:href="#md93e770b23" x="57.6" y="194.500987" style="stroke: #000000; stroke-width: 0.8"/>
      </g>
     </g>
     <g id="text_21">
      <!-- 4.5 -->
      <g transform="translate(35.6 197.918956) scale(0.1 -0.1)">
       <use xlink:href="#SimHei-34"/>
       <use xlink:href="#SimHei-2e" x="50"/>
       <use xlink:href="#SimHei-35" x="100"/>
      </g>
     </g>
    </g>
    <g id="ytick_11">
     <g id="line2d_21">
      <g>
       <use xlink:href="#md93e770b23" x="57.6" y="183.280208" style="stroke: #000000; stroke-width: 0.8"/>
      </g>
     </g>
     <g id="text_22">
      <!-- 5.0 -->
      <g transform="translate(35.6 186.698177) scale(0.1 -0.1)">
       <use xlink:href="#SimHei-35"/>
       <use xlink:href="#SimHei-2e" x="50"/>
       <use xlink:href="#SimHei-30" x="100"/>
      </g>
     </g>
    </g>
    <g id="ytick_12">
     <g id="line2d_22">
      <g>
       <use xlink:href="#md93e770b23" x="57.6" y="172.059429" style="stroke: #000000; stroke-width: 0.8"/>
      </g>
     </g>
     <g id="text_23">
      <!-- 5.5 -->
      <g transform="translate(35.6 175.477397) scale(0.1 -0.1)">
       <use xlink:href="#SimHei-35"/>
       <use xlink:href="#SimHei-2e" x="50"/>
       <use xlink:href="#SimHei-35" x="100"/>
      </g>
     </g>
    </g>
    <g id="ytick_13">
     <g id="line2d_23">
      <g>
       <use xlink:href="#md93e770b23" x="57.6" y="160.838649" style="stroke: #000000; stroke-width: 0.8"/>
      </g>
     </g>
     <g id="text_24">
      <!-- 6.0 -->
      <g transform="translate(35.6 164.256618) scale(0.1 -0.1)">
       <defs>
        <path id="SimHei-36" d="M 2850 1550 
Q 2850 850 2550 450 
Q 2250 50 1650 50 
Q 1050 50 700 550 
Q 350 1050 350 2175 
Q 350 3200 712 3812 
Q 1075 4425 1750 4425 
Q 2225 4425 2512 4075 
Q 2800 3725 2800 3300 
L 2225 3300 
Q 2225 3550 2087 3750 
Q 1950 3950 1725 3950 
Q 1350 3950 1150 3562 
Q 950 3175 925 2375 
Q 1100 2700 1300 2825 
Q 1500 2950 1775 2950 
Q 2250 2950 2550 2575 
Q 2850 2200 2850 1550 
z
M 2250 1550 
Q 2250 2000 2100 2250 
Q 1950 2500 1675 2500 
Q 1350 2500 1162 2250 
Q 975 2000 975 1650 
Q 975 1100 1162 800 
Q 1350 500 1675 500 
Q 1900 500 2075 725 
Q 2250 950 2250 1550 
z
" transform="scale(0.015625)"/>
       </defs>
       <use xlink:href="#SimHei-36"/>
       <use xlink:href="#SimHei-2e" x="50"/>
       <use xlink:href="#SimHei-30" x="100"/>
      </g>
     </g>
    </g>
    <g id="ytick_14">
     <g id="line2d_24">
      <g>
       <use xlink:href="#md93e770b23" x="57.6" y="149.61787" style="stroke: #000000; stroke-width: 0.8"/>
      </g>
     </g>
     <g id="text_25">
      <!-- 6.5 -->
      <g transform="translate(35.6 153.035839) scale(0.1 -0.1)">
       <use xlink:href="#SimHei-36"/>
       <use xlink:href="#SimHei-2e" x="50"/>
       <use xlink:href="#SimHei-35" x="100"/>
      </g>
     </g>
    </g>
    <g id="ytick_15">
     <g id="line2d_25">
      <g>
       <use xlink:href="#md93e770b23" x="57.6" y="138.397091" style="stroke: #000000; stroke-width: 0.8"/>
      </g>
     </g>
     <g id="text_26">
      <!-- 7.0 -->
      <g transform="translate(35.6 141.81506) scale(0.1 -0.1)">
       <defs>
        <path id="SimHei-37" d="M 2775 3850 
L 1600 100 
L 1025 100 
L 2225 3900 
L 400 3900 
L 400 4375 
L 2775 4375 
L 2775 3850 
z
" transform="scale(0.015625)"/>
       </defs>
       <use xlink:href="#SimHei-37"/>
       <use xlink:href="#SimHei-2e" x="50"/>
       <use xlink:href="#SimHei-30" x="100"/>
      </g>
     </g>
    </g>
    <g id="text_27">
     <!-- Gas consumption -->
     <g transform="translate(30.310938 212.028) rotate(-90) scale(0.1 -0.1)">
      <defs>
       <path id="SimHei-47" d="M 2875 50 
L 2450 50 
L 2375 400 
Q 2275 250 2062 150 
Q 1850 50 1600 50 
Q 1075 50 662 537 
Q 250 1025 250 2100 
Q 250 3275 625 3850 
Q 1000 4425 1650 4425 
Q 2225 4425 2550 4000 
Q 2875 3575 2875 2900 
L 2325 2900 
Q 2325 3425 2150 3687 
Q 1975 3950 1650 3950 
Q 1250 3950 1050 3537 
Q 850 3125 850 2150 
Q 850 1225 1100 875 
Q 1350 525 1675 525 
Q 2000 525 2187 762 
Q 2375 1000 2375 1500 
L 2375 1775 
L 1600 1775 
L 1600 2250 
L 2875 2250 
L 2875 50 
z
" transform="scale(0.015625)"/>
       <path id="SimHei-70" d="M 2850 1500 
Q 2850 775 2500 400 
Q 2150 25 1650 25 
Q 1375 25 1175 137 
Q 975 250 825 475 
L 825 -825 
L 325 -825 
L 325 2900 
L 825 2900 
L 825 2525 
Q 975 2750 1175 2850 
Q 1375 2950 1650 2950 
Q 2150 2950 2500 2587 
Q 2850 2225 2850 1500 
z
M 2300 1500 
Q 2300 1975 2112 2237 
Q 1925 2500 1550 2500 
Q 1250 2500 1037 2237 
Q 825 1975 825 1500 
Q 825 1025 1037 750 
Q 1250 475 1550 475 
Q 1925 475 2112 750 
Q 2300 1025 2300 1500 
z
" transform="scale(0.015625)"/>
       <path id="SimHei-74" d="M 2775 175 
Q 2650 125 2487 87 
Q 2325 50 2050 50 
Q 1600 50 1325 300 
Q 1050 550 1050 1000 
L 1050 2500 
L 200 2500 
L 200 2900 
L 1050 2900 
L 1050 3875 
L 1550 3875 
L 1550 2900 
L 2575 2900 
L 2575 2500 
L 1550 2500 
L 1550 975 
Q 1550 775 1650 637 
Q 1750 500 2025 500 
Q 2300 500 2475 550 
Q 2650 600 2775 675 
L 2775 175 
z
" transform="scale(0.015625)"/>
       <path id="SimHei-69" d="M 1825 3700 
L 1325 3700 
L 1325 4350 
L 1825 4350 
L 1825 3700 
z
M 1825 100 
L 1325 100 
L 1325 2900 
L 1825 2900 
L 1825 100 
z
" transform="scale(0.015625)"/>
      </defs>
      <use xlink:href="#SimHei-47"/>
      <use xlink:href="#SimHei-61" x="50"/>
      <use xlink:href="#SimHei-73" x="100"/>
      <use xlink:href="#SimHei-20" x="150"/>
      <use xlink:href="#SimHei-63" x="200"/>
      <use xlink:href="#SimHei-6f" x="250"/>
      <use xlink:href="#SimHei-6e" x="300"/>
      <use xlink:href="#SimHei-73" x="350"/>
      <use xlink:href="#SimHei-75" x="400"/>
      <use xlink:href="#SimHei-6d" x="450"/>
      <use xlink:href="#SimHei-70" x="500"/>
      <use xlink:href="#SimHei-74" x="550"/>
      <use xlink:href="#SimHei-69" x="600"/>
      <use xlink:href="#SimHei-6f" x="650"/>
      <use xlink:href="#SimHei-6e" x="700"/>
     </g>
    </g>
    <g id="text_28">
     <!-- 1e5 -->
     <g transform="translate(57.6 38.472) scale(0.1 -0.1)">
      <use xlink:href="#SimHei-31"/>
      <use xlink:href="#SimHei-65" x="50"/>
      <use xlink:href="#SimHei-35" x="100"/>
     </g>
    </g>
   </g>
   <g id="line2d_26">
    <path d="M 73.832727 137.050597 
L 80.45833 137.050597 
L 87.083933 137.050597 
L 93.709536 137.050597 
L 100.335139 137.050597 
L 106.960742 137.050597 
L 113.586345 137.050597 
L 120.211948 137.050597 
L 126.837551 137.050597 
L 133.463154 137.050597 
L 140.088757 137.050597 
L 146.71436 137.050597 
L 153.339963 137.050597 
L 159.965566 137.050597 
L 166.591169 137.050597 
L 173.216772 137.050597 
L 179.842375 137.050597 
L 186.467978 137.050597 
L 193.093581 137.050597 
L 199.719184 137.050597 
L 206.344787 137.050597 
L 212.97039 137.050597 
L 219.595993 137.050597 
L 226.221596 137.050597 
L 232.847199 137.050597 
L 239.472801 137.050597 
L 246.098404 137.050597 
L 252.724007 137.050597 
L 259.34961 137.050597 
L 265.975213 137.050597 
L 272.600816 137.050597 
L 279.226419 137.050597 
L 285.852022 137.050597 
L 292.477625 137.050597 
L 299.103228 137.050597 
L 305.728831 137.050597 
L 312.354434 137.050597 
L 318.980037 137.050597 
L 325.60564 137.050597 
L 332.231243 137.050597 
L 338.856846 137.050597 
L 345.482449 137.050597 
L 352.108052 137.050597 
L 358.733655 137.050597 
L 365.359258 137.050597 
L 371.984861 137.050597 
L 378.610464 137.050597 
L 385.236067 137.050597 
L 391.86167 137.050597 
L 398.487273 137.050597 
" clip-path="url(#p22e7dff816)" style="fill: none; stroke: #1f77b4; stroke-linecap: square"/>
   </g>
   <g id="line2d_27">
    <path d="M 73.832727 204.226261 
L 80.45833 204.226261 
L 87.083933 204.226261 
L 93.709536 204.226261 
L 100.335139 204.226261 
L 106.960742 204.226261 
L 113.586345 204.226261 
L 120.211948 204.226261 
L 126.837551 204.226261 
L 133.463154 204.226261 
L 140.088757 204.226261 
L 146.71436 204.226261 
L 153.339963 204.226261 
L 159.965566 204.226261 
L 166.591169 204.226261 
L 173.216772 204.226261 
L 179.842375 204.226261 
L 186.467978 204.226261 
L 193.093581 204.226261 
L 199.719184 204.226261 
L 206.344787 204.226261 
L 212.97039 204.226261 
L 219.595993 204.226261 
L 226.221596 204.226261 
L 232.847199 204.226261 
L 239.472801 204.226261 
L 246.098404 204.226261 
L 252.724007 204.226261 
L 259.34961 204.226261 
L 265.975213 204.226261 
L 272.600816 204.226261 
L 279.226419 204.226261 
L 285.852022 204.226261 
L 292.477625 204.226261 
L 299.103228 204.226261 
L 305.728831 204.226261 
L 312.354434 204.226261 
L 318.980037 204.226261 
L 325.60564 204.226261 
L 332.231243 204.226261 
L 338.856846 204.226261 
L 345.482449 204.226261 
L 352.108052 204.226261 
L 358.733655 204.226261 
L 365.359258 204.226261 
L 371.984861 204.226261 
L 378.610464 204.226261 
L 385.236067 204.226261 
L 391.86167 204.226261 
L 398.487273 204.226261 
" clip-path="url(#p22e7dff816)" style="fill: none; stroke: #ff7f0e; stroke-linecap: square"/>
   </g>
   <g id="line2d_28">
    <path d="M 73.832727 166.165602 
L 80.45833 166.165602 
L 87.083933 166.165602 
L 93.709536 166.165602 
L 100.335139 166.165602 
L 106.960742 166.165602 
L 113.586345 166.165602 
L 120.211948 166.165602 
L 126.837551 166.165602 
L 133.463154 166.165602 
L 140.088757 166.165602 
L 146.71436 166.165602 
L 153.339963 166.165602 
L 159.965566 166.165602 
L 166.591169 166.165602 
L 173.216772 166.165602 
L 179.842375 166.165602 
L 186.467978 166.165602 
L 193.093581 166.165602 
L 199.719184 166.165602 
L 206.344787 166.165602 
L 212.97039 166.165602 
L 219.595993 166.165602 
L 226.221596 166.165602 
L 232.847199 166.165602 
L 239.472801 166.165602 
L 246.098404 166.165602 
L 252.724007 166.165602 
L 259.34961 166.165602 
L 265.975213 166.165602 
L 272.600816 166.165602 
L 279.226419 166.165602 
L 285.852022 166.165602 
L 292.477625 166.165602 
L 299.103228 166.165602 
L 305.728831 166.165602 
L 312.354434 166.165602 
L 318.980037 166.165602 
L 325.60564 166.165602 
L 332.231243 166.165602 
L 338.856846 166.165602 
L 345.482449 166.165602 
L 352.108052 166.165602 
L 358.733655 166.165602 
L 365.359258 166.165602 
L 371.984861 166.165602 
L 378.610464 166.165602 
L 385.236067 166.165602 
L 391.86167 166.165602 
L 398.487273 166.165602 
" clip-path="url(#p22e7dff816)" style="fill: none; stroke: #2ca02c; stroke-linecap: square"/>
   </g>
   <g id="line2d_29">
    <path d="M 73.832727 254.112723 
L 80.45833 254.112723 
L 87.083933 254.112723 
L 93.709536 254.112723 
L 100.335139 254.112723 
L 106.960742 254.112723 
L 113.586345 254.112723 
L 120.211948 254.112723 
L 126.837551 254.112723 
L 133.463154 254.112723 
L 140.088757 254.112723 
L 146.71436 254.112723 
L 153.339963 254.112723 
L 159.965566 254.112723 
L 166.591169 254.112723 
L 173.216772 254.112723 
L 179.842375 254.112723 
L 186.467978 254.112723 
L 193.093581 254.112723 
L 199.719184 254.112723 
L 206.344787 254.112723 
L 212.97039 254.112723 
L 219.595993 254.112723 
L 226.221596 254.112723 
L 232.847199 254.112723 
L 239.472801 254.112723 
L 246.098404 254.112723 
L 252.724007 254.112723 
L 259.34961 254.112723 
L 265.975213 254.112723 
L 272.600816 254.112723 
L 279.226419 254.112723 
L 285.852022 254.112723 
L 292.477625 254.112723 
L 299.103228 254.112723 
L 305.728831 254.112723 
L 312.354434 254.112723 
L 318.980037 254.112723 
L 325.60564 254.112723 
L 332.231243 254.112723 
L 338.856846 254.112723 
L 345.482449 254.112723 
L 352.108052 254.112723 
L 358.733655 254.112723 
L 365.359258 254.112723 
L 371.984861 254.112723 
L 378.610464 254.112723 
L 385.236067 254.112723 
L 391.86167 254.112723 
L 398.487273 254.112723 
" clip-path="url(#p22e7dff816)" style="fill: none; stroke: #d62728; stroke-linecap: square"/>
   </g>
   <g id="line2d_30">
    <path d="M 73.832727 295.488 
L 80.45833 290.550857 
L 87.083933 285.613714 
L 93.709536 280.676571 
L 100.335139 275.739429 
L 106.960742 270.802286 
L 113.586345 265.865143 
L 120.211948 260.928 
L 126.837551 255.990857 
L 133.463154 251.053714 
L 140.088757 246.116571 
L 146.71436 241.179429 
L 153.339963 236.242286 
L 159.965566 231.305143 
L 166.591169 226.368 
L 173.216772 221.430857 
L 179.842375 216.493714 
L 186.467978 211.556571 
L 193.093581 206.619429 
L 199.719184 201.682286 
L 206.344787 196.745143 
L 212.97039 191.808 
L 219.595993 186.870857 
L 226.221596 181.933714 
L 232.847199 176.996571 
L 239.472801 172.059429 
L 246.098404 167.122286 
L 252.724007 162.185143 
L 259.34961 157.248 
L 265.975213 152.310857 
L 272.600816 147.373714 
L 279.226419 142.436571 
L 285.852022 137.499429 
L 292.477625 132.562286 
L 299.103228 127.625143 
L 305.728831 122.688 
L 312.354434 117.750857 
L 318.980037 112.813714 
L 325.60564 107.876571 
L 332.231243 102.939429 
L 338.856846 98.002286 
L 345.482449 93.065143 
L 352.108052 88.128 
L 358.733655 83.190857 
L 365.359258 78.253714 
L 371.984861 73.316571 
L 378.610464 68.379429 
L 385.236067 63.442286 
L 391.86167 58.505143 
L 398.487273 53.568 
" clip-path="url(#p22e7dff816)" style="fill: none; stroke: #9467bd; stroke-linecap: square"/>
   </g>
   <g id="patch_3">
    <path d="M 57.6 307.584 
L 57.6 41.472 
" style="fill: none; stroke: #000000; stroke-width: 0.8; stroke-linejoin: miter; stroke-linecap: square"/>
   </g>
   <g id="patch_4">
    <path d="M 414.72 307.584 
L 414.72 41.472 
" style="fill: none; stroke: #000000; stroke-width: 0.8; stroke-linejoin: miter; stroke-linecap: square"/>
   </g>
   <g id="patch_5">
    <path d="M 57.6 307.584 
L 414.72 307.584 
" style="fill: none; stroke: #000000; stroke-width: 0.8; stroke-linejoin: miter; stroke-linecap: square"/>
   </g>
   <g id="patch_6">
    <path d="M 57.6 41.472 
L 414.72 41.472 
" style="fill: none; stroke: #000000; stroke-width: 0.8; stroke-linejoin: miter; stroke-linecap: square"/>
   </g>
   <g id="legend_1">
    <g id="patch_7">
     <path d="M 64.6 115.917313 
L 211.6 115.917313 
Q 213.6 115.917313 213.6 113.917313 
L 213.6 48.472 
Q 213.6 46.472 211.6 46.472 
L 64.6 46.472 
Q 62.6 46.472 62.6 48.472 
L 62.6 113.917313 
Q 62.6 115.917313 64.6 115.917313 
z
" style="fill: #ffffff; opacity: 0.8; stroke: #cccccc; stroke-linejoin: miter"/>
    </g>
    <g id="line2d_31">
     <path d="M 66.6 53.972 
L 76.6 53.972 
L 86.6 53.972 
" style="fill: none; stroke: #1f77b4; stroke-linecap: square"/>
    </g>
    <g id="text_29">
     <!-- wang et al.'s scheme -->
     <g transform="translate(94.6 57.472) scale(0.1 -0.1)">
      <defs>
       <path id="SimHei-77" d="M 3100 2900 
L 2475 50 
L 2000 50 
L 1600 2225 
L 1550 2225 
L 1150 50 
L 675 50 
L 50 2900 
L 575 2900 
L 900 1025 
L 950 1025 
L 1300 2900 
L 1850 2900 
L 2200 1025 
L 2250 1025 
L 2575 2900 
L 3100 2900 
z
" transform="scale(0.015625)"/>
       <path id="SimHei-67" d="M 3000 2475 
Q 2825 2525 2662 2537 
Q 2500 2550 2325 2500 
Q 2400 2425 2450 2312 
Q 2500 2200 2500 1975 
Q 2500 1550 2212 1275 
Q 1925 1000 1500 1000 
Q 1400 1000 1237 1037 
Q 1075 1075 975 1125 
Q 900 1075 875 1025 
Q 850 975 850 900 
Q 850 775 1025 712 
Q 1200 650 1650 650 
Q 2375 650 2637 450 
Q 2900 250 2900 -50 
Q 2900 -450 2512 -637 
Q 2125 -825 1600 -825 
Q 925 -825 600 -650 
Q 275 -475 275 -175 
Q 275 -25 400 125 
Q 525 275 725 375 
Q 575 450 487 562 
Q 400 675 400 850 
Q 400 1000 512 1112 
Q 625 1225 775 1300 
Q 650 1425 575 1600 
Q 500 1775 500 1975 
Q 500 2400 787 2675 
Q 1075 2950 1500 2950 
Q 1725 2950 1887 2887 
Q 2050 2825 2175 2700 
Q 2375 2850 2575 2912 
Q 2775 2975 3000 2950 
L 3000 2475 
z
M 2000 1975 
Q 2000 2225 1875 2375 
Q 1750 2525 1500 2525 
Q 1250 2525 1125 2375 
Q 1000 2225 1000 1975 
Q 1000 1725 1125 1575 
Q 1250 1425 1500 1425 
Q 1750 1425 1875 1575 
Q 2000 1725 2000 1975 
z
M 2425 -100 
Q 2425 0 2312 100 
Q 2200 200 1750 200 
Q 1650 200 1475 212 
Q 1300 225 1075 250 
Q 875 175 800 75 
Q 725 -25 725 -125 
Q 725 -275 925 -375 
Q 1125 -475 1625 -475 
Q 2050 -475 2237 -362 
Q 2425 -250 2425 -100 
z
" transform="scale(0.015625)"/>
       <path id="SimHei-27" d="M 1125 3875 
L 800 3125 
L 550 3125 
L 800 3875 
L 550 3875 
L 550 4425 
L 1125 4425 
L 1125 3875 
z
" transform="scale(0.015625)"/>
       <path id="SimHei-68" d="M 2825 100 
L 2325 100 
L 2325 1900 
Q 2325 2200 2175 2375 
Q 2025 2550 1775 2550 
Q 1450 2550 1162 2212 
Q 875 1875 875 1375 
L 875 100 
L 375 100 
L 375 4375 
L 875 4375 
L 875 2375 
Q 1075 2650 1312 2800 
Q 1550 2950 1925 2950 
Q 2375 2950 2600 2700 
Q 2825 2450 2825 2075 
L 2825 100 
z
" transform="scale(0.015625)"/>
      </defs>
      <use xlink:href="#SimHei-77"/>
      <use xlink:href="#SimHei-61" x="50"/>
      <use xlink:href="#SimHei-6e" x="100"/>
      <use xlink:href="#SimHei-67" x="150"/>
      <use xlink:href="#SimHei-20" x="200"/>
      <use xlink:href="#SimHei-65" x="250"/>
      <use xlink:href="#SimHei-74" x="300"/>
      <use xlink:href="#SimHei-20" x="350"/>
      <use xlink:href="#SimHei-61" x="400"/>
      <use xlink:href="#SimHei-6c" x="450"/>
      <use xlink:href="#SimHei-2e" x="500"/>
      <use xlink:href="#SimHei-27" x="550"/>
      <use xlink:href="#SimHei-73" x="600"/>
      <use xlink:href="#SimHei-20" x="650"/>
      <use xlink:href="#SimHei-73" x="700"/>
      <use xlink:href="#SimHei-63" x="750"/>
      <use xlink:href="#SimHei-68" x="800"/>
      <use xlink:href="#SimHei-65" x="850"/>
      <use xlink:href="#SimHei-6d" x="900"/>
      <use xlink:href="#SimHei-65" x="950"/>
     </g>
    </g>
    <g id="line2d_32">
     <path d="M 66.6 67.261063 
L 76.6 67.261063 
L 86.6 67.261063 
" style="fill: none; stroke: #ff7f0e; stroke-linecap: square"/>
    </g>
    <g id="text_30">
     <!-- Galindo et al.'s scheme -->
     <g transform="translate(94.6 70.761063) scale(0.1 -0.1)">
      <use xlink:href="#SimHei-47"/>
      <use xlink:href="#SimHei-61" x="50"/>
      <use xlink:href="#SimHei-6c" x="100"/>
      <use xlink:href="#SimHei-69" x="150"/>
      <use xlink:href="#SimHei-6e" x="200"/>
      <use xlink:href="#SimHei-64" x="250"/>
      <use xlink:href="#SimHei-6f" x="300"/>
      <use xlink:href="#SimHei-20" x="350"/>
      <use xlink:href="#SimHei-65" x="400"/>
      <use xlink:href="#SimHei-74" x="450"/>
      <use xlink:href="#SimHei-20" x="500"/>
      <use xlink:href="#SimHei-61" x="550"/>
      <use xlink:href="#SimHei-6c" x="600"/>
      <use xlink:href="#SimHei-2e" x="650"/>
      <use xlink:href="#SimHei-27" x="700"/>
      <use xlink:href="#SimHei-73" x="750"/>
      <use xlink:href="#SimHei-20" x="800"/>
      <use xlink:href="#SimHei-73" x="850"/>
      <use xlink:href="#SimHei-63" x="900"/>
      <use xlink:href="#SimHei-68" x="950"/>
      <use xlink:href="#SimHei-65" x="1000"/>
      <use xlink:href="#SimHei-6d" x="1050"/>
      <use xlink:href="#SimHei-65" x="1100"/>
     </g>
    </g>
    <g id="line2d_33">
     <path d="M 66.6 80.550125 
L 76.6 80.550125 
L 86.6 80.550125 
" style="fill: none; stroke: #2ca02c; stroke-linecap: square"/>
    </g>
    <g id="text_31">
     <!-- Tian et al.'s scheme -->
     <g transform="translate(94.6 84.050125) scale(0.1 -0.1)">
      <defs>
       <path id="SimHei-54" d="M 2875 3900 
L 1875 3900 
L 1875 100 
L 1300 100 
L 1300 3900 
L 300 3900 
L 300 4375 
L 2875 4375 
L 2875 3900 
z
" transform="scale(0.015625)"/>
      </defs>
      <use xlink:href="#SimHei-54"/>
      <use xlink:href="#SimHei-69" x="50"/>
      <use xlink:href="#SimHei-61" x="100"/>
      <use xlink:href="#SimHei-6e" x="150"/>
      <use xlink:href="#SimHei-20" x="200"/>
      <use xlink:href="#SimHei-65" x="250"/>
      <use xlink:href="#SimHei-74" x="300"/>
      <use xlink:href="#SimHei-20" x="350"/>
      <use xlink:href="#SimHei-61" x="400"/>
      <use xlink:href="#SimHei-6c" x="450"/>
      <use xlink:href="#SimHei-2e" x="500"/>
      <use xlink:href="#SimHei-27" x="550"/>
      <use xlink:href="#SimHei-73" x="600"/>
      <use xlink:href="#SimHei-20" x="650"/>
      <use xlink:href="#SimHei-73" x="700"/>
      <use xlink:href="#SimHei-63" x="750"/>
      <use xlink:href="#SimHei-68" x="800"/>
      <use xlink:href="#SimHei-65" x="850"/>
      <use xlink:href="#SimHei-6d" x="900"/>
      <use xlink:href="#SimHei-65" x="950"/>
     </g>
    </g>
    <g id="line2d_34">
     <path d="M 66.6 93.839188 
L 76.6 93.839188 
L 86.6 93.839188 
" style="fill: none; stroke: #d62728; stroke-linecap: square"/>
    </g>
    <g id="text_32">
     <!-- Our scheme -->
     <g transform="translate(94.6 97.339188) scale(0.1 -0.1)">
      <defs>
       <path id="SimHei-4f" d="M 2975 2250 
Q 2975 1075 2612 562 
Q 2250 50 1600 50 
Q 950 50 575 562 
Q 200 1075 200 2250 
Q 200 3425 575 3925 
Q 950 4425 1600 4425 
Q 2250 4425 2612 3925 
Q 2975 3425 2975 2250 
z
M 2375 2250 
Q 2375 3300 2150 3625 
Q 1925 3950 1600 3950 
Q 1275 3950 1037 3625 
Q 800 3300 800 2250 
Q 800 1200 1037 862 
Q 1275 525 1600 525 
Q 1925 525 2150 862 
Q 2375 1200 2375 2250 
z
" transform="scale(0.015625)"/>
      </defs>
      <use xlink:href="#SimHei-4f"/>
      <use xlink:href="#SimHei-75" x="50"/>
      <use xlink:href="#SimHei-72" x="100"/>
      <use xlink:href="#SimHei-20" x="150"/>
      <use xlink:href="#SimHei-73" x="200"/>
      <use xlink:href="#SimHei-63" x="250"/>
      <use xlink:href="#SimHei-68" x="300"/>
      <use xlink:href="#SimHei-65" x="350"/>
      <use xlink:href="#SimHei-6d" x="400"/>
      <use xlink:href="#SimHei-65" x="450"/>
     </g>
    </g>
    <g id="line2d_35">
     <path d="M 66.6 107.12825 
L 76.6 107.12825 
L 86.6 107.12825 
" style="fill: none; stroke: #9467bd; stroke-linecap: square"/>
    </g>
    <g id="text_33">
     <!-- ECDSA -->
     <g transform="translate(94.6 110.62825) scale(0.1 -0.1)">
      <defs>
       <path id="SimHei-45" d="M 2925 100 
L 375 100 
L 375 4375 
L 2800 4375 
L 2800 3900 
L 950 3900 
L 950 2575 
L 2650 2575 
L 2650 2100 
L 950 2100 
L 950 575 
L 2925 575 
L 2925 100 
z
" transform="scale(0.015625)"/>
       <path id="SimHei-43" d="M 3000 1800 
Q 2975 850 2600 450 
Q 2225 50 1700 50 
Q 1100 50 675 537 
Q 250 1025 250 2100 
Q 250 3275 662 3850 
Q 1075 4425 1725 4425 
Q 2275 4425 2637 4012 
Q 3000 3600 2975 2850 
L 2425 2850 
Q 2425 3400 2250 3675 
Q 2075 3950 1725 3950 
Q 1325 3950 1087 3537 
Q 850 3125 850 2150 
Q 850 1250 1087 887 
Q 1325 525 1700 525 
Q 1975 525 2200 787 
Q 2425 1050 2425 1800 
L 3000 1800 
z
" transform="scale(0.015625)"/>
       <path id="SimHei-44" d="M 2950 2225 
Q 2950 1075 2462 587 
Q 1975 100 1150 100 
L 300 100 
L 300 4375 
L 1150 4375 
Q 2075 4375 2512 3875 
Q 2950 3375 2950 2225 
z
M 2350 2225 
Q 2350 3150 2050 3525 
Q 1750 3900 1150 3900 
L 875 3900 
L 875 575 
L 1150 575 
Q 1750 575 2050 937 
Q 2350 1300 2350 2225 
z
" transform="scale(0.015625)"/>
       <path id="SimHei-53" d="M 2925 1300 
Q 2925 725 2562 387 
Q 2200 50 1575 50 
Q 950 50 600 400 
Q 250 750 250 1275 
L 250 1450 
L 825 1450 
L 825 1300 
Q 825 925 1050 725 
Q 1275 525 1575 525 
Q 1975 525 2162 737 
Q 2350 950 2350 1250 
Q 2350 1500 2125 1712 
Q 1900 1925 1475 2100 
Q 875 2325 612 2600 
Q 350 2875 350 3250 
Q 350 3775 712 4100 
Q 1075 4425 1575 4425 
Q 2225 4425 2512 4037 
Q 2800 3650 2800 3200 
L 2225 3200 
Q 2250 3475 2075 3700 
Q 1900 3925 1575 3925 
Q 1275 3925 1100 3762 
Q 925 3600 925 3325 
Q 925 3100 1062 2937 
Q 1200 2775 1775 2550 
Q 2325 2325 2625 2012 
Q 2925 1700 2925 1300 
z
" transform="scale(0.015625)"/>
       <path id="SimHei-41" d="M 3100 100 
L 2500 100 
L 2150 1425 
L 1050 1425 
L 700 100 
L 100 100 
L 1350 4425 
L 1850 4425 
L 3100 100 
z
M 2025 1900 
L 1625 3425 
L 1575 3425 
L 1175 1900 
L 2025 1900 
z
" transform="scale(0.015625)"/>
      </defs>
      <use xlink:href="#SimHei-45"/>
      <use xlink:href="#SimHei-43" x="50"/>
      <use xlink:href="#SimHei-44" x="100"/>
      <use xlink:href="#SimHei-53" x="150"/>
      <use xlink:href="#SimHei-41" x="200"/>
     </g>
    </g>
   </g>
  </g>
 </g>
 <defs>
  <clipPath id="p22e7dff816">
   <rect x="57.6" y="41.472" width="357.12" height="266.112"/>
  </clipPath>
 </defs>
</svg>
